HIERARCHY
ROOT root
{
	OFFSET 0.000000 0.000000 0.000000
	CHANNELS 6 Xposition Yposition Zposition Zrotation Yrotation Xrotation
	JOINT lhip
	{
		OFFSET 0.058581 -0.082280 -0.017664
		CHANNELS 3 Zrotation Yrotation Xrotation
		JOINT lknee
		{
			OFFSET 0.043451 -0.386469 0.008037
			CHANNELS 3 Zrotation Yrotation Xrotation
			JOINT lankle
			{
				OFFSET -0.014790 -0.426874 -0.037428
				CHANNELS 3 Zrotation Yrotation Xrotation
				JOINT ltoe
				{
					OFFSET 0.041054 -0.060286 0.122042
					CHANNELS 3 Zrotation Yrotation Xrotation
					End Site
					{
						OFFSET 0.000000 0.000000 0.000000
					}
				}
			}
		}
	}
	JOINT rhip
	{
		OFFSET -0.060310 -0.090513 -0.013543
		CHANNELS 3 Zrotation Yrotation Xrotation
		JOINT rknee
		{
			OFFSET -0.043257 -0.383688 -0.004843
			CHANNELS 3 Zrotation Yrotation Xrotation
			JOINT rankle
			{
				OFFSET 0.019056 -0.420046 -0.034562
				CHANNELS 3 Zrotation Yrotation Xrotation
				JOINT rtoe
				{
					OFFSET -0.034840 -0.062106 0.130323
					CHANNELS 3 Zrotation Yrotation Xrotation
					End Site
					{
						OFFSET 0.000000 0.000000 0.000000
					}
				}
			}
		}
	}
	JOINT lowerback
	{
		OFFSET 0.004439 0.124404 -0.038385
		CHANNELS 3 Zrotation Yrotation Xrotation
		JOINT upperback
		{
			OFFSET 0.004488 0.137956 0.026820
			CHANNELS 3 Zrotation Yrotation Xrotation
			JOINT chest
			{
				OFFSET -0.002265 0.056032 0.002855
				CHANNELS 3 Zrotation Yrotation Xrotation
				JOINT lowerneck
				{
					OFFSET -0.013390 0.211636 -0.033468
					CHANNELS 3 Zrotation Yrotation Xrotation
					JOINT upperneck
					{
						OFFSET 0.010113 0.088937 0.050410
						CHANNELS 3 Zrotation Yrotation Xrotation
						End Site
						{
							OFFSET 0.000000 0.000000 0.000000
						}
					}
				}
				JOINT lclavicle
				{
					OFFSET 0.071702 0.114000 -0.018898
					CHANNELS 3 Zrotation Yrotation Xrotation
					JOINT lshoulder
					{
						OFFSET 0.122921 0.045205 -0.019046
						CHANNELS 3 Zrotation Yrotation Xrotation
						JOINT lelbow
						{
							OFFSET 0.255332 -0.015649 -0.022946
							CHANNELS 3 Zrotation Yrotation Xrotation
							JOINT lwrist
							{
								OFFSET 0.265709 0.012698 -0.007375
								CHANNELS 3 Zrotation Yrotation Xrotation
								End Site
								{
									OFFSET 0.000000 0.000000 0.000000
								}
							}
						}
					}
				}
				JOINT rclavicle
				{
					OFFSET -0.082954 0.112472 -0.023707
					CHANNELS 3 Zrotation Yrotation Xrotation
					JOINT rshoulder
					{
						OFFSET -0.113228 0.046853 -0.008472
						CHANNELS 3 Zrotation Yrotation Xrotation
						JOINT relbow
						{
							OFFSET -0.260127 -0.014369 -0.031269
							CHANNELS 3 Zrotation Yrotation Xrotation
							JOINT rwrist
							{
								OFFSET -0.269108 0.006794 -0.006027
								CHANNELS 3 Zrotation Yrotation Xrotation
								End Site
								{
									OFFSET 0.000000 0.000000 0.000000
								}
							}
						}
					}
				}
			}
		}
	}
}
MOTION
Frames: 7
Frame Time: 0.033333
1.062290 0.701098 0.956944 -15.800370 0.776651 86.515702 16.142538 2.534571 -9.113554 -7.104553 -5.970086 33.488093 -0.195650 5.411612 -27.153210 0.000000 -0.000000 0.000000 -18.291691 -3.798536 -17.766671 -2.600926 -2.277145 33.579631 6.402317 -7.172750 -8.681476 0.000000 -0.000000 0.000000 -1.182155 -1.997292 17.119109 4.205905 -5.468221 -1.216442 -1.300178 -4.708434 1.114867 7.603556 -23.947352 -9.019576 3.986430 -29.224778 0.976089 -24.063732 12.058266 4.364563 -55.034716 -6.428240 6.354739 15.818687 -62.646520 6.843136 16.618386 -16.154368 -18.996905 24.034565 -6.853760 -5.074758 56.984123 5.012009 16.512301 -71.185950 82.795831 -46.697008 -14.532640 11.240360 -10.765726 
1.074259 0.705027 0.967445 -17.275622 1.929926 85.996998 14.840386 1.669307 -8.372913 -5.154649 -7.075193 33.134811 1.386566 7.259231 -27.412718 0.000000 -0.000000 0.000000 -17.369318 -4.142975 -15.799639 -1.700538 -1.472151 28.615654 6.883646 -7.325414 -6.534588 0.000000 -0.000000 0.000000 0.414503 -2.695676 18.861472 4.564560 -7.249032 -2.285593 -1.555468 -5.810011 1.370952 7.637667 -22.291228 -9.654110 3.051284 -27.201697 3.056553 -23.820215 10.811786 3.809537 -56.382077 -6.729793 8.451968 6.059429 -64.995832 16.718850 16.968387 -17.403444 -19.016193 22.402229 -7.868076 -7.048332 56.478294 5.027363 16.581633 -126.306333 78.482533 -100.529578 -16.898344 11.008435 -8.747803 
1.082039 0.709095 0.978668 -19.017750 2.602092 85.929046 14.312766 0.992310 -7.722785 -3.437121 -5.551032 32.248314 2.549571 7.108412 -27.712057 0.000000 -0.000000 0.000000 -16.623271 -4.774798 -15.003894 -1.408207 -1.535449 25.204218 6.324452 -6.088847 -6.576383 0.000000 -0.000000 0.000000 0.986086 -2.672949 20.157149 5.150617 -8.759840 -3.336070 -1.461688 -6.320744 0.693088 7.294088 -21.019873 -8.839863 2.207960 -25.733613 4.141591 -22.688741 8.370299 3.322255 -57.307081 -8.068166 11.183735 -8.196448 -67.567278 31.429671 12.888669 -18.333678 -19.105962 20.756387 -8.234855 -8.874087 54.231517 6.403319 13.978522 -130.997259 70.296623 -104.460514 -16.667671 12.831047 -3.744208 
1.078723 0.707864 0.975938 -22.913906 2.084770 89.774407 14.785000 2.958785 -9.825460 -3.792644 -2.883935 30.391238 3.032678 6.637407 -26.554289 0.000000 -0.000000 0.000000 -16.689009 -5.377374 -19.613353 -1.612800 -2.559842 23.932508 6.027211 -4.718578 -7.121550 0.000000 -0.000000 0.000000 -1.346477 -1.912882 12.748912 5.275721 -8.696166 -1.290982 -1.139047 -6.611216 0.998166 7.150454 -20.181962 -5.783657 2.804476 -25.116477 3.326841 -20.164176 4.697252 4.619579 -58.589041 -11.898636 15.490511 -24.941348 -70.508314 51.191688 15.792046 -18.682931 -21.847815 18.106182 -7.962275 -7.970388 52.183776 12.101947 9.648463 -120.115879 65.894852 -96.167038 -23.124974 14.403462 -12.772394 
1.079801 0.708208 0.978589 -24.331771 2.298875 89.753535 15.108295 3.691774 -8.839009 -3.827029 -2.388020 29.145637 3.175279 6.277326 -26.005547 0.000000 -0.000000 0.000000 -16.770025 -6.427742 -19.090729 -1.184191 -3.608700 21.865929 6.022557 -6.736002 -7.163974 0.000000 -0.000000 0.000000 -1.462385 -2.199334 12.671514 5.271856 -9.345615 -1.208297 -0.883052 -7.023896 0.478627 6.131516 -19.663588 -4.582097 2.773762 -23.633066 4.850563 -18.397797 -1.453190 3.750702 -59.876120 -17.362279 19.447099 -38.826349 -72.637911 65.609024 16.773408 -18.905999 -25.994143 15.675833 -5.052761 -8.641208 48.711878 15.022626 5.575223 -107.693272 56.594153 -84.596301 -22.967240 11.281844 -4.119620 
1.079654 0.709295 0.980463 -25.702862 2.272715 90.293929 15.359553 4.066327 -8.805381 -3.687538 -1.009516 28.690431 3.417001 5.474028 -25.662393 0.000000 -0.000000 0.000000 -16.806723 -7.779641 -19.830604 -1.677800 -6.033819 21.376563 5.491299 -7.788521 -7.020089 0.000000 -0.000000 0.000000 -1.103144 -2.512425 12.429002 5.035030 -9.878722 -1.724494 -1.236117 -7.345133 -0.369279 4.765243 -19.388480 -3.390575 2.866488 -23.138486 6.970284 -16.739755 -7.185094 2.296934 -60.899766 -24.538822 22.529267 -46.977513 -74.402470 73.621924 12.571485 -19.475352 -27.540691 13.614926 -2.423473 -8.622302 45.752854 17.434963 2.067032 -99.277817 49.550980 -77.366883 -17.435088 8.202608 -0.195569 
1.075549 0.710226 0.981230 -27.396863 2.284468 90.549972 15.723122 4.773298 -8.146682 -3.493226 0.002607 27.901379 3.163399 5.581902 -25.498463 0.000000 -0.000000 0.000000 -16.600770 -8.558652 -20.772951 -1.991524 -8.139442 21.603297 4.868455 -8.804071 -6.527935 0.000000 -0.000000 0.000000 -1.257658 -3.140512 12.233765 4.752669 -10.158158 -1.994949 -1.140617 -7.623384 -0.645910 3.672678 -19.498418 -2.927526 3.267237 -22.265566 7.973222 -14.813890 -11.565504 0.229949 -62.469417 -32.249872 24.823888 -42.197831 -76.018222 68.218140 12.370735 -19.478398 -30.261809 11.710458 0.054606 -8.103229 42.588616 19.261261 0.119041 -91.787338 47.021893 -71.498827 -16.320590 8.021812 -0.804076 
